# xmcd
# 
# Track frame offsets:
#     202
#     12952
#     37232
#     53450
#     67305
#     92107
#     105727
#     131345
#     150587
#     164995
# 
# Disc length: 2465
# 
# Revision: 2
# Processed by: cddbd v1.5.2PL0 Copyright (c) Steve Scherf et al.
# Submitted via: fre:ac v1.1beta1pre5
# 
DISCID=88099f0a
DTITLE=The Smokin' Joe Kubek  Band - Steppin' Out Texas Style
DYEAR=0
DGENRE=
TTITLE0=Comin' Home Today
TTITLE1=I Wonder Why
TTITLE2=Natural Born Lover
TTITLE3=Everbody's Talkin'
TTITLE4=Square Bizness
TTITLE5=Hands On It
TTITLE6=Smokin' Joes Cafe
TTITLE7=That's All I Want
TTITLE8=Steppin' Out
TTITLE9=Lonely Days
EXTD=
EXTT0=
EXTT1=
EXTT2=
EXTT3=
EXTT4=
EXTT5=
EXTT6=
EXTT7=
EXTT8=
EXTT9=
PLAYORDER=
